# xmcd
#
# Track frame offsets:
#	150
#	15285
#	31220
#	45400
#	59012
#	77265
#
# Disc length: 1209 seconds
#
# Revision: 0
# Processed by: cddbd v1.4PL0 Copyright (c) Steve Scherf et al.
# Submitted via: EasyCDDAExtractor 4.6.0.1
#
DISCID=3604b706
DTITLE=Scratch - Start From Scratch
DYEAR=1997
DGENRE=Blues
TTITLE0=Riding The Blinds
TTITLE1=Those Crazy Days
TTITLE2=Treat Her Right
TTITLE3=Baby What You Want Me To Do
TTITLE4=Red House
TTITLE5=Shake For Me
EXTD=
EXTT0=
EXTT1=
EXTT2=
EXTT3=
EXTT4=
EXTT5=
PLAYORDER=
